{
	"asset":{
		"generator":"Khronos glTF Blender I/O v3.5.30",
		"version":"2.0"
	},
	"scene":0,
	"scenes":[
		{
			"name":"Scene",
			"nodes":[
				0
			]
		}
	],
	"nodes":[
		{
			"mesh":0,
			"name":"Curve.006",
			"scale":[
				77.48444366455078,
				77.48444366455078,
				77.48444366455078
			],
			"translation":[
				0.14719036221504211,
				0.0026384200900793076,
				-0.03648108243942261
			]
		}
	],
	"materials":[
		{
			"doubleSided":true,
			"name":"Material.001",
			"pbrMetallicRoughness":{
				"baseColorFactor":[
					0.52450031042099,
					1,
					0.9884902238845825,
					1
				],
				"roughnessFactor":0.2685951292514801
			}
		}
	],
	"meshes":[
		{
			"name":"Curve.006",
			"primitives":[
				{
					"attributes":{
						"POSITION":0,
						"TEXCOORD_0":1,
						"NORMAL":2
					},
					"indices":3,
					"material":0
				}
			]
		}
	],
	"accessors":[
		{
			"bufferView":0,
			"componentType":5126,
			"count":90,
			"max":[
				0.03903423249721527,
				0.040361836552619934,
				0.008547443896532059
			],
			"min":[
				-0.03903492912650108,
				-0.028673475608229637,
				-0.002638421952724457
			],
			"type":"VEC3"
		},
		{
			"bufferView":1,
			"componentType":5126,
			"count":90,
			"type":"VEC2"
		},
		{
			"bufferView":2,
			"componentType":5126,
			"count":90,
			"type":"VEC3"
		},
		{
			"bufferView":3,
			"componentType":5123,
			"count":90,
			"type":"SCALAR"
		}
	],
	"bufferViews":[
		{
			"buffer":0,
			"byteLength":1080,
			"byteOffset":0,
			"target":34962
		},
		{
			"buffer":0,
			"byteLength":720,
			"byteOffset":1080,
			"target":34962
		},
		{
			"buffer":0,
			"byteLength":1080,
			"byteOffset":1800,
			"target":34962
		},
		{
			"buffer":0,
			"byteLength":180,
			"byteOffset":2880,
			"target":34963
		}
	],
	"buffers":[
		{
			"byteLength":3060,
			"uri":"data:application/octet-stream;base64,"
		}
	]
}
