{
	"asset":{
		"generator":"Khronos glTF Blender I/O v3.6.27",
		"version":"2.0"
	},
	"scene":0,
	"scenes":[
		{
			"name":"Scene",
			"nodes":[
				0
			]
		}
	],
	"nodes":[
		{
			"mesh":0,
			"name":"Curve.002",
			"rotation":[
				0.6875208616256714,
				0.16527308523654938,
				-0.16527308523654938,
				0.6875206232070923
			],
			"scale":[
				11.732804298400879,
				4.709522247314453,
				11.732806205749512
			],
			"translation":[
				0.00033399462699890137,
				0,
				-0.0009163245558738708
			]
		}
	],
	"materials":[
		{
			"doubleSided":true,
			"name":"Rusted Bronze.001",
			"normalTexture":{
				"index":0,
				"texCoord":1
			},
			"pbrMetallicRoughness":{
				"baseColorFactor":[
					0.8000000715255737,
					0.5206100940704346,
					0.30755892395973206,
					1
				],
				"roughnessFactor":0.06818182021379471
			}
		}
	],
	"meshes":[
		{
			"name":"Curve.002",
			"primitives":[
				{
					"attributes":{
						"POSITION":0,
						"NORMAL":1,
						"TEXCOORD_0":2,
						"TEXCOORD_1":3
					},
					"indices":4,
					"material":0
				}
			]
		}
	],
	"textures":[
		{
			"sampler":0,
			"source":0
		}
	],
	"images":[
		{
			"bufferView":5,
			"mimeType":"image/jpeg",
			"name":"Scratches-02_4K_Roughness"
		}
	],
	"accessors":[
		{
			"bufferView":0,
			"componentType":5126,
			"count":4791,
			"max":[
				0.058781225234270096,
				0.010999999940395355,
				0.05974201112985611
			],
			"min":[
				-0.06065663322806358,
				-0.010999999940395355,
				-0.05964003503322601
			],
			"type":"VEC3"
		},
		{
			"bufferView":1,
			"componentType":5126,
			"count":4791,
			"type":"VEC3"
		},
		{
			"bufferView":2,
			"componentType":5126,
			"count":4791,
			"type":"VEC2"
		},
		{
			"bufferView":3,
			"componentType":5126,
			"count":4791,
			"type":"VEC2"
		},
		{
			"bufferView":4,
			"componentType":5123,
			"count":17424,
			"type":"SCALAR"
		}
	],
	"bufferViews":[
		{
			"buffer":0,
			"byteLength":57492,
			"byteOffset":0,
			"target":34962
		},
		{
			"buffer":0,
			"byteLength":57492,
			"byteOffset":57492,
			"target":34962
		},
		{
			"buffer":0,
			"byteLength":38328,
			"byteOffset":114984,
			"target":34962
		},
		{
			"buffer":0,
			"byteLength":38328,
			"byteOffset":153312,
			"target":34962
		},
		{
			"buffer":0,
			"byteLength":34848,
			"byteOffset":191640,
			"target":34963
		},
		{
			"buffer":0,
			"byteLength":922595,
			"byteOffset":226488
		}
	],
	"samplers":[
		{
			"magFilter":9729,
			"minFilter":9987
		}
	],
	"buffers":[
		{
			"byteLength":1149084,
			"uri":"data:application/octet-stream;base64,"
		}
	]
}
