{
	"asset":{
		"generator":"Khronos glTF Blender I/O v3.6.27",
		"version":"2.0"
	},
	"scene":0,
	"scenes":[
		{
			"name":"Scene",
			"nodes":[
				0
			]
		}
	],
	"nodes":[
		{
			"mesh":0,
			"name":"W\u00fcrfel3.3",
			"scale":[
				0.1009168028831482,
				0.1009168028831482,
				0.1009168028831482
			],
			"translation":[
				-12.300000190734863,
				-9.550000190734863,
				14.6899995803833
			]
		}
	],
	"meshes":[
		{
			"name":"W\u00fcrfel3.3",
			"primitives":[
				{
					"attributes":{
						"POSITION":0,
						"NORMAL":1
					},
					"indices":2
				}
			]
		}
	],
	"accessors":[
		{
			"bufferView":0,
			"componentType":5126,
			"count":51,
			"max":[
				249.95010375976562,
				249.95008850097656,
				-0.00010058283805847168
			],
			"min":[
				0.0001043081283569336,
				8.940696716308594e-05,
				-249.9751739501953
			],
			"type":"VEC3"
		},
		{
			"bufferView":1,
			"componentType":5126,
			"count":51,
			"type":"VEC3"
		},
		{
			"bufferView":2,
			"componentType":5123,
			"count":390,
			"type":"SCALAR"
		}
	],
	"bufferViews":[
		{
			"buffer":0,
			"byteLength":612,
			"byteOffset":0,
			"target":34962
		},
		{
			"buffer":0,
			"byteLength":612,
			"byteOffset":612,
			"target":34962
		},
		{
			"buffer":0,
			"byteLength":780,
			"byteOffset":1224,
			"target":34963
		}
	],
	"buffers":[
		{
			"byteLength":2004,
			"uri":"data:application/octet-stream;base64,"
		}
	]
}
