{
	"asset":{
		"generator":"Khronos glTF Blender I/O v3.6.27",
		"version":"2.0"
	},
	"scene":0,
	"scenes":[
		{
			"name":"Scene",
			"nodes":[
				0
			]
		}
	],
	"nodes":[
		{
			"mesh":0,
			"name":"holoid_3",
			"rotation":[
				0.006170591805130243,
				-0.006170591805130243,
				-0.7070798873901367,
				0.7070798277854919
			],
			"scale":[
				0.45350033044815063,
				0.5035002827644348,
				0.5035002827644348
			],
			"translation":[
				-20,
				40,
				20
			]
		}
	],
	"meshes":[
		{
			"name":"holoid_3",
			"primitives":[
				{
					"attributes":{
						"POSITION":0,
						"NORMAL":1
					},
					"indices":2
				}
			]
		}
	],
	"accessors":[
		{
			"bufferView":0,
			"componentType":5126,
			"count":61569,
			"max":[
				148.6290740966797,
				79.72964477539062,
				-1.1200382709503174
			],
			"min":[
				1.5524029731750488,
				2.5860965251922607,
				-78.2654037475586
			],
			"type":"VEC3"
		},
		{
			"bufferView":1,
			"componentType":5126,
			"count":61569,
			"type":"VEC3"
		},
		{
			"bufferView":2,
			"componentType":5123,
			"count":62958,
			"type":"SCALAR"
		}
	],
	"bufferViews":[
		{
			"buffer":0,
			"byteLength":738828,
			"byteOffset":0,
			"target":34962
		},
		{
			"buffer":0,
			"byteLength":738828,
			"byteOffset":738828,
			"target":34962
		},
		{
			"buffer":0,
			"byteLength":125916,
			"byteOffset":1477656,
			"target":34963
		}
	],
	"buffers":[
		{
			"byteLength":1603572,
			"uri":"data:application/octet-stream;base64,"
		}
	]
}
