{
  "accessors": [
    {
      "bufferView": 2,
      "componentType": 5126,
      "count": 813,
      "max": [
        0.7032150626182556,
        1.6360433101654053,
        0.7957432866096497
      ],
      "min": [
        -0.7032150626182556,
        -1.9394968748092651,
        -0.7053865194320679
      ],
      "type": "VEC3"
    },
    {
      "bufferView": 2,
      "byteOffset": 9756,
      "componentType": 5126,
      "count": 813,
      "max": [
        1.0,
        0.9999999403953552,
        1.0
      ],
      "min": [
        -1.0,
        -1.0,
        -1.0
      ],
      "type": "VEC3"
    },
    {
      "bufferView": 1,
      "componentType": 5126,
      "count": 813,
      "max": [
        0.8750002384185791,
        1.000000238418579
      ],
      "min": [
        0.125,
        0.0
      ],
      "type": "VEC2"
    },
    {
      "bufferView": 0,
      "componentType": 5125,
      "count": 3840,
      "type": "SCALAR"
    },
    {
      "bufferView": 2,
      "byteOffset": 19512,
      "componentType": 5126,
      "count": 813,
      "max": [
        0.6854181885719299,
        1.6840089559555054,
        0.702505886554718
      ],
      "min": [
        -0.6854183077812195,
        -1.7861998081207275,
        -0.668358564376831
      ],
      "type": "VEC3"
    },
    {
      "bufferView": 2,
      "byteOffset": 29268,
      "componentType": 5126,
      "count": 813,
      "max": [
        1.0,
        1.0,
        0.9999731779098511
      ],
      "min": [
        -1.0,
        -1.0,
        -0.999970555305481
      ],
      "type": "VEC3"
    },
    {
      "bufferView": 1,
      "byteOffset": 6504,
      "componentType": 5126,
      "count": 813,
      "max": [
        0.8750002384185791,
        1.000000238418579
      ],
      "min": [
        0.125,
        0.0
      ],
      "type": "VEC2"
    },
    {
      "bufferView": 0,
      "byteOffset": 15360,
      "componentType": 5125,
      "count": 3840,
      "type": "SCALAR"
    },
    {
      "bufferView": 2,
      "byteOffset": 39024,
      "componentType": 5126,
      "count": 813,
      "max": [
        0.6854181885719299,
        1.6748857498168945,
        0.7113099694252014
      ],
      "min": [
        -0.6854183077812195,
        -2.0127034187316895,
        -0.6595267057418823
      ],
      "type": "VEC3"
    },
    {
      "bufferView": 2,
      "byteOffset": 48780,
      "componentType": 5126,
      "count": 813,
      "max": [
        1.0,
        0.9999999403953552,
        0.9999998807907104
      ],
      "min": [
        -1.0,
        -1.0,
        -0.9999998211860657
      ],
      "type": "VEC3"
    },
    {
      "bufferView": 1,
      "byteOffset": 13008,
      "componentType": 5126,
      "count": 813,
      "max": [
        0.8750002384185791,
        1.000000238418579
      ],
      "min": [
        0.125,
        0.0
      ],
      "type": "VEC2"
    },
    {
      "bufferView": 0,
      "byteOffset": 30720,
      "componentType": 5125,
      "count": 3840,
      "type": "SCALAR"
    },
    {
      "bufferView": 2,
      "byteOffset": 58536,
      "componentType": 5126,
      "count": 820,
      "max": [
        0.7268851399421692,
        1.728432059288025,
        0.6988813877105713
      ],
      "min": [
        -0.7268852591514587,
        -2.0077178478240967,
        -0.7418705224990845
      ],
      "type": "VEC3"
    },
    {
      "bufferView": 2,
      "byteOffset": 68376,
      "componentType": 5126,
      "count": 820,
      "max": [
        0.9996594190597534,
        0.9999864101409912,
        0.9999943971633911
      ],
      "min": [
        -0.9996594190597534,
        -0.9999954700469971,
        -0.9999770522117615
      ],
      "type": "VEC3"
    },
    {
      "bufferView": 1,
      "byteOffset": 19512,
      "componentType": 5126,
      "count": 820,
      "max": [
        0.8750003576278687,
        1.0000003576278687
      ],
      "min": [
        0.125,
        0.0
      ],
      "type": "VEC2"
    },
    {
      "bufferView": 0,
      "byteOffset": 46080,
      "componentType": 5125,
      "count": 3840,
      "type": "SCALAR"
    },
    {
      "bufferView": 2,
      "byteOffset": 78216,
      "componentType": 5126,
      "count": 2235,
      "max": [
        0.8148873448371887,
        1.7391642332077026,
        0.6944555640220642
      ],
      "min": [
        -1.8888676166534424,
        -2.03546404838562,
        -0.716996967792511
      ],
      "type": "VEC3"
    },
    {
      "bufferView": 2,
      "byteOffset": 105036,
      "componentType": 5126,
      "count": 2235,
      "max": [
        0.9999841451644897,
        0.9991651773452759,
        0.9999691843986511
      ],
      "min": [
        -0.9999842047691345,
        -0.999967634677887,
        -0.9999990463256836
      ],
      "type": "VEC3"
    },
    {
      "bufferView": 1,
      "byteOffset": 26072,
      "componentType": 5126,
      "count": 2235,
      "max": [
        0.8750002384185791,
        1.000000238418579
      ],
      "min": [
        0.125,
        0.0
      ],
      "type": "VEC2"
    },
    {
      "bufferView": 0,
      "byteOffset": 61440,
      "componentType": 5125,
      "count": 10752,
      "type": "SCALAR"
    },
    {
      "bufferView": 2,
      "byteOffset": 131856,
      "componentType": 5126,
      "count": 813,
      "max": [
        0.7245985865592957,
        2.356004476547241,
        0.9053223729133606
      ],
      "min": [
        -0.7245985865592957,
        -6.187094688415527,
        -0.6789811253547668
      ],
      "type": "VEC3"
    },
    {
      "bufferView": 2,
      "byteOffset": 141612,
      "componentType": 5126,
      "count": 813,
      "max": [
        1.0,
        0.9999898672103882,
        0.9999780654907227
      ],
      "min": [
        -1.0,
        -0.9999995827674866,
        -0.999504566192627
      ],
      "type": "VEC3"
    },
    {
      "bufferView": 1,
      "byteOffset": 43952,
      "componentType": 5126,
      "count": 813,
      "max": [
        0.8750002384185791,
        1.000000238418579
      ],
      "min": [
        0.125,
        0.0
      ],
      "type": "VEC2"
    },
    {
      "bufferView": 0,
      "byteOffset": 104448,
      "componentType": 5125,
      "count": 3840,
      "type": "SCALAR"
    },
    {
      "bufferView": 2,
      "byteOffset": 151368,
      "componentType": 5126,
      "count": 2292,
      "max": [
        0.6622746586799622,
        2.2393338680267334,
        0.5068134069442749
      ],
      "min": [
        -0.6622747182846069,
        -0.4000537097454071,
        -1.1189351081848145
      ],
      "type": "VEC3"
    },
    {
      "bufferView": 2,
      "byteOffset": 178872,
      "componentType": 5126,
      "count": 2292,
      "max": [
        0.9997031092643738,
        0.999931275844574,
        0.9992884993553162
      ],
      "min": [
        -0.9996938109397888,
        -0.9990682601928711,
        -0.9996857047080994
      ],
      "type": "VEC3"
    },
    {
      "bufferView": 1,
      "byteOffset": 50456,
      "componentType": 5126,
      "count": 2292,
      "max": [
        0.8750002384185791,
        1.000000238418579
      ],
      "min": [
        0.1249999925494194,
        0.0
      ],
      "type": "VEC2"
    },
    {
      "bufferView": 0,
      "byteOffset": 119808,
      "componentType": 5125,
      "count": 11520,
      "type": "SCALAR"
    },
    {
      "bufferView": 2,
      "byteOffset": 206376,
      "componentType": 5126,
      "count": 1636,
      "max": [
        0.7595155835151672,
        1.7210521697998047,
        0.8908763527870178
      ],
      "min": [
        -2.287116527557373,
        -1.9886093139648438,
        -0.7752817273139954
      ],
      "type": "VEC3"
    },
    {
      "bufferView": 2,
      "byteOffset": 226008,
      "componentType": 5126,
      "count": 1636,
      "max": [
        0.9999979138374329,
        0.9999927878379822,
        0.9982056021690369
      ],
      "min": [
        -0.9999979734420776,
        -0.999600887298584,
        -0.998511552810669
      ],
      "type": "VEC3"
    },
    {
      "bufferView": 1,
      "byteOffset": 68792,
      "componentType": 5126,
      "count": 1636,
      "max": [
        0.8750002384185791,
        1.000000238418579
      ],
      "min": [
        0.125,
        0.0
      ],
      "type": "VEC2"
    },
    {
      "bufferView": 0,
      "byteOffset": 165888,
      "componentType": 5125,
      "count": 7680,
      "type": "SCALAR"
    },
    {
      "bufferView": 2,
      "byteOffset": 245640,
      "componentType": 5126,
      "count": 1636,
      "max": [
        0.7595155835151672,
        1.7210519313812256,
        0.890876293182373
      ],
      "min": [
        -2.287116765975952,
        -1.9886094331741333,
        -0.7752817273139954
      ],
      "type": "VEC3"
    },
    {
      "bufferView": 2,
      "byteOffset": 265272,
      "componentType": 5126,
      "count": 1636,
      "max": [
        0.9999979138374329,
        0.9999927282333374,
        0.9982056021690369
      ],
      "min": [
        -0.9999979138374329,
        -0.999600887298584,
        -0.998511552810669
      ],
      "type": "VEC3"
    },
    {
      "bufferView": 1,
      "byteOffset": 81880,
      "componentType": 5126,
      "count": 1636,
      "max": [
        0.8750002384185791,
        1.000000238418579
      ],
      "min": [
        0.125,
        0.0
      ],
      "type": "VEC2"
    },
    {
      "bufferView": 0,
      "byteOffset": 196608,
      "componentType": 5125,
      "count": 7680,
      "type": "SCALAR"
    }
  ],
  "asset": {
    "extras": {
      "author": "ElOsitoAzul (https://sketchfab.com/ElOsitoAzul)",
      "license": "CC-BY-4.0 (http://creativecommons.org/licenses/by/4.0/)",
      "source": "https://sketchfab.com/3d-models/balloon-dog-3b26f816a3024d00a7483e8610bb7980",
      "title": "Balloon Dog"
    },
    "generator": "Sketchfab-15.30.0",
    "version": "2.0"
  },
  "bufferViews": [
    {
      "buffer": 0,
      "byteLength": 227328,
      "name": "floatBufferViews",
      "target": 34963
    },
    {
      "buffer": 0,
      "byteLength": 94968,
      "byteOffset": 227328,
      "byteStride": 8,
      "name": "floatBufferViews",
      "target": 34962
    },
    {
      "buffer": 0,
      "byteLength": 284904,
      "byteOffset": 322296,
      "byteStride": 12,
      "name": "floatBufferViews",
      "target": 34962
    }
  ],
  "buffers": [
    {
      "byteLength": 607200,
      "uri": "scene.bin"
    }
  ],
  "extensionsUsed": [
    "KHR_materials_specular"
  ],
  "materials": [
    {
      "doubleSided": true,
      "extensions": {
        "KHR_materials_specular": {
          "specularColorFactor": [
            1.0,
            1.0,
            1.0
          ],
          "specularFactor": 1.0
        }
      },
      "name": "globo",
      "pbrMetallicRoughness": {
        "baseColorFactor": [
          0.0,
          0.20676816339115278,
          1.0,
          1.0
        ],
        "roughnessFactor": 0.1272295351611606
      }
    }
  ],
  "meshes": [
    {
      "name": "Cube_globo_0",
      "primitives": [
        {
          "attributes": {
            "NORMAL": 1,
            "POSITION": 0,
            "TEXCOORD_0": 2
          },
          "indices": 3,
          "material": 0,
          "mode": 4
        }
      ]
    },
    {
      "name": "Cube.003_globo_0",
      "primitives": [
        {
          "attributes": {
            "NORMAL": 5,
            "POSITION": 4,
            "TEXCOORD_0": 6
          },
          "indices": 7,
          "material": 0,
          "mode": 4
        }
      ]
    },
    {
      "name": "Cube.004_globo_0",
      "primitives": [
        {
          "attributes": {
            "NORMAL": 9,
            "POSITION": 8,
            "TEXCOORD_0": 10
          },
          "indices": 11,
          "material": 0,
          "mode": 4
        }
      ]
    },
    {
      "name": "Cube.005_globo_0",
      "primitives": [
        {
          "attributes": {
            "NORMAL": 13,
            "POSITION": 12,
            "TEXCOORD_0": 14
          },
          "indices": 15,
          "material": 0,
          "mode": 4
        }
      ]
    },
    {
      "name": "Cube.006_globo_0",
      "primitives": [
        {
          "attributes": {
            "NORMAL": 17,
            "POSITION": 16,
            "TEXCOORD_0": 18
          },
          "indices": 19,
          "material": 0,
          "mode": 4
        }
      ]
    },
    {
      "name": "Cube.007_globo_0",
      "primitives": [
        {
          "attributes": {
            "NORMAL": 21,
            "POSITION": 20,
            "TEXCOORD_0": 22
          },
          "indices": 23,
          "material": 0,
          "mode": 4
        }
      ]
    },
    {
      "name": "Cube.008_globo_0",
      "primitives": [
        {
          "attributes": {
            "NORMAL": 25,
            "POSITION": 24,
            "TEXCOORD_0": 26
          },
          "indices": 27,
          "material": 0,
          "mode": 4
        }
      ]
    },
    {
      "name": "Cube.009_globo_0",
      "primitives": [
        {
          "attributes": {
            "NORMAL": 29,
            "POSITION": 28,
            "TEXCOORD_0": 30
          },
          "indices": 31,
          "material": 0,
          "mode": 4
        }
      ]
    },
    {
      "name": "Cube.001_globo_0",
      "primitives": [
        {
          "attributes": {
            "NORMAL": 33,
            "POSITION": 32,
            "TEXCOORD_0": 34
          },
          "indices": 35,
          "material": 0,
          "mode": 4
        }
      ]
    }
  ],
  "nodes": [
    {
      "children": [
        1
      ],
      "matrix": [
        1.0,
        0.0,
        0.0,
        0.0,
        0.0,
        2.220446049250313e-16,
        -1.0,
        0.0,
        0.0,
        1.0,
        2.220446049250313e-16,
        0.0,
        0.0,
        0.0,
        0.0,
        1.0
      ],
      "name": "Sketchfab_model"
    },
    {
      "children": [
        2
      ],
      "matrix": [
        0.009999999776482582,
        0.0,
        0.0,
        0.0,
        0.0,
        0.0,
        0.009999999776482582,
        0.0,
        0.0,
        -0.009999999776482582,
        0.0,
        0.0,
        0.0,
        0.0,
        0.0,
        1.0
      ],
      "name": "e600fba9e36e42fb911782f5db4b0426.fbx"
    },
    {
      "children": [
        3,
        5,
        7,
        9,
        11,
        13,
        15,
        17,
        19
      ],
      "name": "RootNode"
    },
    {
      "children": [
        4
      ],
      "matrix": [
        100.0,
        0.0,
        0.0,
        0.0,
        0.0,
        -1.629206793918314e-05,
        -99.99999999999868,
        0.0,
        0.0,
        99.99999999999868,
        -1.629206793918314e-05,
        0.0,
        0.0,
        0.0,
        0.0,
        1.0
      ],
      "name": "Cube"
    },
    {
      "mesh": 0,
      "name": "Cube_globo_0"
    },
    {
      "children": [
        6
      ],
      "matrix": [
        100.0,
        -2.0112663660166373e-14,
        -1.2796020855052313e-14,
        0.0,
        8.868644504608934e-15,
        62.77862142532043,
        -29.36700803884042,
        0.0,
        2.011266607253211e-14,
        42.371845581092906,
        90.57940289012167,
        0.0,
        2.7070334431629657e-14,
        121.91394805908203,
        -196.574462890625,
        1.0
      ],
      "name": "Cube.003"
    },
    {
      "mesh": 1,
      "name": "Cube.003_globo_0"
    },
    {
      "children": [
        8
      ],
      "matrix": [
        100.0,
        -1.9253359323088726e-14,
        -3.3265485232848735e-14,
        0.0,
        2.3055588963609648e-14,
        60.09641037587108,
        34.52530769737303,
        0.0,
        1.925335249224061e-14,
        -49.814439859974904,
        86.70940884031528,
        0.0,
        3.1493064449675257e-14,
        129.21371459960938,
        242.89695739746094,
        1.0
      ],
      "name": "Cube.004"
    },
    {
      "mesh": 2,
      "name": "Cube.004_globo_0"
    },
    {
      "children": [
        10
      ],
      "matrix": [
        108.3485336303711,
        7.249178114540925e-16,
        -4.8105493489769613e-14,
        0.0,
        3.33408732609484e-14,
        -2.262746929587874,
        75.05991853083532,
        0.0,
        -7.249351631659607e-16,
        -108.29935025895122,
        -3.2647786870982696,
        0.0,
        5.023750716099361e-14,
        226.24961853027344,
        -385.9663391113281,
        1.0
      ],
      "name": "Cube.005"
    },
    {
      "mesh": 3,
      "name": "Cube.005_globo_0"
    },
    {
      "children": [
        12
      ],
      "matrix": [
        107.708251953125,
        -2.3706281472861135e-14,
        -2.7076555988819492e-14,
        0.0,
        1.876617628415538e-14,
        73.99555001865264,
        9.865091669690532,
        0.0,
        2.3706280342372892e-14,
        -14.233731616331017,
        106.76361001330048,
        0.0,
        57.8382682800293,
        363.0326843261719,
        -213.93222045898438,
        1.0
      ],
      "name": "Cube.006"
    },
    {
      "mesh": 4,
      "name": "Cube.006_globo_0"
    },
    {
      "children": [
        14
      ],
      "matrix": [
        25.080272674560547,
        -4.749137009196302e-15,
        -8.355503363762376e-15,
        0.0,
        5.750323511178422e-15,
        15.042722696407981,
        8.710394500748679,
        0.0,
        4.850983123756146e-15,
        -12.567691977379573,
        21.704218486699162,
        0.0,
        6.036456870386203e-14,
        293.3915710449219,
        336.7997741699219,
        1.0
      ],
      "name": "Cube.007"
    },
    {
      "mesh": 5,
      "name": "Cube.007_globo_0"
    },
    {
      "children": [
        16
      ],
      "matrix": [
        32.938804626464844,
        -1.6502476378858378e-15,
        -9.228532411859212e-17,
        0.0,
        9.964563829513603e-17,
        2.9956837402144876,
        -18.00299040315539,
        0.0,
        1.3134883570605704e-15,
        25.97540616188831,
        4.3222875834559975,
        0.0,
        5.401475572158407e-14,
        239.54998779296875,
        -534.5313110351563,
        1.0
      ],
      "name": "Cube.008"
    },
    {
      "mesh": 6,
      "name": "Cube.008_globo_0"
    },
    {
      "children": [
        18
      ],
      "matrix": [
        109.39939880371094,
        2.1371170125505844e-14,
        -3.583937313135135e-14,
        0.0,
        3.583936643894255e-14,
        -96.24721029925577,
        52.006758870595164,
        0.0,
        -2.1371181348646616e-14,
        -52.006758870595164,
        -96.24721029925577,
        0.0,
        83.55931854248047,
        -181.45330810546875,
        274.5013427734375,
        1.0
      ],
      "name": "Cube.009"
    },
    {
      "mesh": 7,
      "name": "Cube.009_globo_0"
    },
    {
      "children": [
        20
      ],
      "matrix": [
        109.39939880371094,
        6.027908768939861e-14,
        3.341914560705179e-15,
        0.0,
        5.683387163964075e-14,
        -100.78806891497996,
        -42.54403944508623,
        0.0,
        -2.0362916009403995e-14,
        42.54403944508623,
        -100.78806891497996,
        0.0,
        83.55931854248047,
        -185.47879028320313,
        -222.64471435546875,
        1.0
      ],
      "name": "Cube.001"
    },
    {
      "mesh": 8,
      "name": "Cube.001_globo_0"
    }
  ],
  "scene": 0,
  "scenes": [
    {
      "name": "Sketchfab_Scene",
      "nodes": [
        0
      ]
    }
  ]
}
