{
	"asset":{
		"generator":"Khronos glTF Blender I/O v3.6.27",
		"version":"2.0"
	},
	"scene":0,
	"scenes":[
		{
			"name":"Scene",
			"nodes":[
				0
			]
		}
	],
	"nodes":[
		{
			"mesh":0,
			"name":"Curve.003",
			"rotation":[
				0.7070583701133728,
				-0.00827438198029995,
				0.008274382911622524,
				0.707058310508728
			],
			"scale":[
				0.9739924669265747,
				0.21796245872974396,
				0.9749797582626343
			],
			"translation":[
				0,
				0.06999999284744263,
				0
			]
		}
	],
	"materials":[
		{
			"doubleSided":true,
			"name":"Material.001",
			"pbrMetallicRoughness":{}
		}
	],
	"meshes":[
		{
			"name":"Curve.003",
			"primitives":[
				{
					"attributes":{
						"POSITION":0,
						"NORMAL":1,
						"TEXCOORD_0":2
					},
					"indices":3,
					"material":0
				}
			]
		}
	],
	"accessors":[
		{
			"bufferView":0,
			"componentType":5126,
			"count":40809,
			"max":[
				0.08788811415433884,
				0.028023535385727882,
				0.19067269563674927
			],
			"min":[
				-0.11524571478366852,
				-0.028023535385727882,
				-0.042871180921792984
			],
			"type":"VEC3"
		},
		{
			"bufferView":1,
			"componentType":5126,
			"count":40809,
			"type":"VEC3"
		},
		{
			"bufferView":2,
			"componentType":5126,
			"count":40809,
			"type":"VEC2"
		},
		{
			"bufferView":3,
			"componentType":5123,
			"count":206304,
			"type":"SCALAR"
		}
	],
	"bufferViews":[
		{
			"buffer":0,
			"byteLength":489708,
			"byteOffset":0,
			"target":34962
		},
		{
			"buffer":0,
			"byteLength":489708,
			"byteOffset":489708,
			"target":34962
		},
		{
			"buffer":0,
			"byteLength":326472,
			"byteOffset":979416,
			"target":34962
		},
		{
			"buffer":0,
			"byteLength":412608,
			"byteOffset":1305888,
			"target":34963
		}
	],
	"buffers":[
		{
			"byteLength":1718496,
			"uri":"data:application/octet-stream;base64,"
		}
	]
}
