{
	"asset":{
		"generator":"Khronos glTF Blender I/O v3.5.30",
		"version":"2.0"
	},
	"scene":0,
	"scenes":[
		{
			"name":"Scene",
			"nodes":[
				0
			]
		}
	],
	"nodes":[
		{
			"mesh":0,
			"name":"Curve.003",
			"rotation":[
				0.6989409327507019,
				-0.1071522906422615,
				0.1071523055434227,
				0.6989408135414124
			],
			"scale":[
				0.9749796986579895,
				0.5333014726638794,
				0.9749797582626343
			],
			"translation":[
				0.1276894360780716,
				0.08237767219543457,
				0
			]
		}
	],
	"materials":[
		{
			"doubleSided":true,
			"name":"Material.001",
			"pbrMetallicRoughness":{}
		}
	],
	"meshes":[
		{
			"name":"Curve.003",
			"primitives":[
				{
					"attributes":{
						"POSITION":0,
						"TEXCOORD_0":1,
						"NORMAL":2
					},
					"indices":3,
					"material":0
				}
			]
		}
	],
	"accessors":[
		{
			"bufferView":0,
			"componentType":5126,
			"count":12775,
			"max":[
				0.10917829722166061,
				0.028023535385727882,
				0.05191018432378769
			],
			"min":[
				-0.09395543485879898,
				-0.028023535385727882,
				-0.18158917129039764
			],
			"type":"VEC3"
		},
		{
			"bufferView":1,
			"componentType":5126,
			"count":12775,
			"type":"VEC2"
		},
		{
			"bufferView":2,
			"componentType":5126,
			"count":12775,
			"type":"VEC3"
		},
		{
			"bufferView":3,
			"componentType":5123,
			"count":64902,
			"type":"SCALAR"
		}
	],
	"bufferViews":[
		{
			"buffer":0,
			"byteLength":153300,
			"byteOffset":0,
			"target":34962
		},
		{
			"buffer":0,
			"byteLength":102200,
			"byteOffset":153300,
			"target":34962
		},
		{
			"buffer":0,
			"byteLength":153300,
			"byteOffset":255500,
			"target":34962
		},
		{
			"buffer":0,
			"byteLength":129804,
			"byteOffset":408800,
			"target":34963
		}
	],
	"buffers":[
		{
			"byteLength":538604,
			"uri":"data:application/octet-stream;base64,"
		}
	]
}
